<svg preserveAspectRatio="none" width="100%" height="100%" overflow="visible" style="display: block;" viewBox="0 0 566.199 758" fill="none" xmlns="http://www.w3.org/2000/svg">
<g id="Vector">
<path d="M102.248 0C102.248 70.0169 134.524 102.338 204.491 102.381C134.524 102.423 102.248 134.745 102.248 204.762H102.411C102.356 204.762 102.301 204.763 102.246 204.763C102.191 204.763 102.136 204.762 102.081 204.762L102.246 204.763C102.246 134.745 69.969 102.423 0 102.381C69.9691 102.339 102.246 70.0179 102.246 0H102.248Z" fill="#88D0C8"/>
<path d="M314.661 535.908C309.541 533.632 305.446 529.65 303.171 524.531C144.69 596.774 136.27 681.533 181.209 681.533C211.586 681.419 265.968 642.851 314.661 535.908ZM210.107 660.486C201.346 669.246 187.239 669.246 178.479 660.486C169.719 651.725 169.719 637.618 178.479 628.858C187.239 620.097 201.346 620.097 210.107 628.858C218.753 637.618 218.753 651.725 210.107 660.486Z" fill="white"/>
<path d="M314.661 494.981C265.968 388.037 211.586 349.469 181.209 349.356C136.157 349.356 144.69 434.114 303.171 506.358C305.446 501.238 309.541 497.142 314.661 494.981ZM210.107 401.917C201.346 410.677 187.239 410.677 178.479 401.917C169.719 393.157 169.719 379.049 178.479 370.289C187.239 361.529 201.346 361.529 210.107 370.289C218.753 379.049 218.753 393.271 210.107 401.917Z" fill="white"/>
<path d="M173.012 551.402C205.664 551.402 249.01 543.666 302.823 523.528C301.799 521.026 301.23 518.295 301.23 515.451C301.23 512.607 301.912 509.876 302.823 507.373C249.01 487.236 205.664 479.5 173.012 479.5C72.553 479.386 72.6668 551.402 173.012 551.402ZM140.701 493.038C153.102 493.038 163.113 503.05 163.113 515.451C163.113 527.852 153.102 537.864 140.701 537.864C128.3 537.864 118.288 527.852 118.288 515.451C118.288 503.05 128.3 493.038 140.701 493.038Z" fill="white"/>
<path d="M331.628 536.145C329.125 537.169 326.394 537.738 323.55 537.738C320.705 537.738 317.975 537.055 315.472 536.145C264.275 672.782 293.856 741.272 323.55 741.272C353.244 741.272 382.71 672.782 331.628 536.145ZM323.55 720.566C311.149 720.566 301.137 710.554 301.137 698.153C301.137 685.752 311.149 675.74 323.55 675.74C335.951 675.74 345.962 685.752 345.962 698.153C345.962 710.554 335.951 720.566 323.55 720.566Z" fill="white"/>
<path d="M332.413 535.908C381.107 642.851 435.489 681.533 465.865 681.533C510.918 681.533 502.385 596.774 343.904 524.531C341.629 529.537 337.533 533.632 332.413 535.908ZM436.968 628.858C445.728 620.097 459.836 620.097 468.596 628.858C477.356 637.618 477.356 651.725 468.596 660.486C459.836 669.246 445.728 669.246 436.968 660.486C428.321 651.725 428.321 637.618 436.968 628.858Z" fill="white"/>
<path d="M474.05 479.361C441.398 479.361 398.052 487.097 344.239 507.234C345.263 509.737 345.832 512.468 345.832 515.312C345.832 518.156 345.15 520.887 344.239 523.39C398.052 543.527 441.398 551.263 474.05 551.263C574.509 551.377 574.395 479.361 474.05 479.361ZM506.361 537.725C493.96 537.725 483.948 527.713 483.948 515.312C483.948 502.911 493.96 492.899 506.361 492.899C518.762 492.899 528.774 502.911 528.774 515.312C528.774 527.713 518.762 537.725 506.361 537.725Z" fill="white"/>
<path d="M315.461 494.601C317.964 493.577 320.694 493.009 323.538 493.009C326.383 493.009 329.113 493.691 331.616 494.601C382.813 357.964 353.232 289.475 323.538 289.475C293.845 289.475 264.378 358.078 315.461 494.601ZM323.538 310.181C335.939 310.181 345.951 320.193 345.951 332.593C345.951 344.994 335.939 355.006 323.538 355.006C311.138 355.006 301.125 344.994 301.125 332.593C301.125 320.193 311.138 310.181 323.538 310.181Z" fill="white"/>
<path d="M332.413 494.981C337.533 497.256 341.629 501.238 343.904 506.358C502.385 434.114 510.805 349.356 465.865 349.356C435.489 349.356 381.107 388.037 332.413 494.981ZM436.968 370.289C445.728 361.529 459.836 361.529 468.596 370.289C477.356 379.049 477.356 393.157 468.596 401.917C459.836 410.677 445.728 410.677 436.968 401.917C428.321 393.271 428.321 379.049 436.968 370.289Z" fill="white"/>
<path d="M359.479 736.27C366.192 726.145 380.755 696.906 374.953 639.225C409.311 681.32 442.304 698.157 465.854 698.157C486.105 698.157 501.692 685.984 505.446 667.098C510.793 640.248 493.273 603.728 447.651 566.753C456.866 567.663 465.627 568.232 474.159 568.232C537.757 568.232 566.199 541.724 566.199 515.557C566.199 489.276 537.757 462.768 474.159 462.768C465.74 462.768 456.866 463.223 447.765 464.247C493.386 427.272 510.907 390.752 505.56 363.902C501.806 345.016 486.333 332.843 465.968 332.843C442.304 332.843 409.31 349.681 375.066 391.776C380.868 334.094 366.306 304.856 359.593 294.73C350.264 280.736 337.522 273 323.642 273C309.876 273 297.02 280.736 287.691 294.73C280.978 304.856 266.416 334.094 272.218 391.776C237.86 349.681 204.867 332.843 181.316 332.843C161.065 332.843 145.479 345.016 141.725 363.902C136.377 390.752 153.898 427.272 199.519 464.247C190.304 463.337 181.544 462.768 173.011 462.768C130.234 462.768 98.6059 475.055 86.205 496.557C79.265 508.617 79.265 522.383 86.205 534.443C98.6059 555.945 130.234 568.232 173.011 568.232C181.43 568.232 190.304 567.777 199.519 566.753C153.898 603.728 136.377 640.248 141.725 667.098C145.479 685.984 160.952 698.157 181.316 698.157C204.98 698.157 237.973 681.32 272.218 639.225C266.416 696.906 280.978 726.145 287.691 736.27C297.02 750.264 309.762 758 323.642 758C337.295 758 350.15 750.264 359.479 736.27ZM323.528 741.276C293.835 741.276 264.368 672.786 315.451 536.149C317.953 537.173 320.684 537.742 323.528 537.742C326.373 537.742 329.103 537.059 331.606 536.149C382.689 672.786 353.222 741.276 323.528 741.276ZM303.164 524.431C305.439 529.55 309.534 533.646 314.654 535.808C265.961 642.751 211.579 681.433 181.202 681.433C136.263 681.433 144.683 596.675 303.164 524.431ZM173.011 479.378C205.663 479.378 249.009 487.115 302.822 507.252C301.798 509.755 301.229 512.485 301.229 515.329C301.229 518.174 301.912 520.904 302.822 523.407C248.895 543.544 205.663 551.281 173.011 551.281C72.6664 551.394 72.5527 479.378 173.011 479.378ZM181.202 349.339C211.579 349.339 265.961 388.021 314.654 494.964C309.534 497.24 305.439 501.222 303.164 506.341C144.683 434.098 136.263 349.339 181.202 349.339ZM323.528 289.61C353.222 289.61 382.689 358.1 331.606 494.737C329.103 493.713 326.373 493.144 323.528 493.144C320.684 493.144 317.953 493.827 315.451 494.737C264.368 358.1 293.835 289.61 323.528 289.61ZM343.893 506.341C341.618 501.222 337.522 497.126 332.402 494.964C381.096 388.021 435.478 349.339 465.854 349.339C510.793 349.339 502.374 434.098 343.893 506.341ZM474.046 551.395C441.394 551.395 398.048 543.658 344.235 523.521C345.259 521.018 345.828 518.287 345.828 515.443C345.828 512.599 345.145 509.868 344.235 507.365C398.161 487.228 441.394 479.492 474.046 479.492C574.39 479.378 574.504 551.395 474.046 551.395ZM465.854 681.433C435.478 681.433 381.096 642.751 332.402 535.808C337.522 533.532 341.618 529.55 343.893 524.431C502.374 596.675 510.793 681.433 465.854 681.433Z" fill="var(--fill-0, #F3A41E)"/>
<path d="M323.531 720.665C335.909 720.665 345.943 710.631 345.943 698.253C345.943 685.875 335.909 675.84 323.531 675.84C311.153 675.84 301.118 685.875 301.118 698.253C301.118 710.631 311.153 720.665 323.531 720.665Z" fill="var(--fill-0, #F3A41E)"/>
<path d="M323.531 355.035C335.909 355.035 345.943 345.001 345.943 332.623C345.943 320.245 335.909 310.21 323.531 310.21C311.153 310.21 301.118 320.245 301.118 332.623C301.118 345.001 311.153 355.035 323.531 355.035Z" fill="var(--fill-0, #F3A41E)"/>
<path d="M506.372 493.032C493.971 493.032 483.959 503.044 483.959 515.445C483.959 527.846 493.971 537.858 506.372 537.858C518.772 537.858 528.784 527.846 528.784 515.445C528.784 503.044 518.772 493.032 506.372 493.032Z" fill="var(--fill-0, #F3A41E)"/>
<path d="M140.702 537.731C153.103 537.731 163.115 527.719 163.115 515.318C163.115 502.917 153.103 492.905 140.702 492.905C128.302 492.905 118.29 502.917 118.29 515.318C118.29 527.719 128.302 537.731 140.702 537.731Z" fill="var(--fill-0, #F3A41E)"/>
<path d="M452.784 408.509C465.162 408.509 475.197 398.474 475.197 386.096C475.197 373.718 465.162 363.683 452.784 363.683C440.406 363.683 430.372 373.718 430.372 386.096C430.372 398.474 440.406 408.509 452.784 408.509Z" fill="var(--fill-0, #F3A41E)"/>
<path d="M178.479 628.874C169.718 637.634 169.718 651.742 178.479 660.502C187.239 669.262 201.346 669.262 210.106 660.502C218.867 651.742 218.867 637.634 210.106 628.874C201.346 620.114 187.125 620.114 178.479 628.874Z" fill="var(--fill-0, #F3A41E)"/>
<path d="M468.586 660.502C477.347 651.742 477.347 637.634 468.586 628.874C459.826 620.114 445.718 620.114 436.958 628.874C428.198 637.634 428.198 651.742 436.958 660.502C445.718 669.262 459.94 669.262 468.586 660.502Z" fill="var(--fill-0, #F3A41E)"/>
<path d="M178.479 370.269C169.718 379.03 169.718 393.137 178.479 401.897C187.239 410.658 201.346 410.658 210.106 401.897C218.867 393.137 218.867 379.03 210.106 370.269C201.346 361.623 187.125 361.623 178.479 370.269Z" fill="var(--fill-0, #F3A41E)"/>
</g>
</svg>
