<svg preserveAspectRatio="none" width="100%" height="100%" overflow="visible" style="display: block;" viewBox="0 0 1097.91 1097.91" fill="none" xmlns="http://www.w3.org/2000/svg">
<g id="Vector">
<path d="M882.033 253.925L802.879 25.581L574.534 104.736L358.661 0L253.925 215.874L26.6116 294.671L105.409 521.983L0 739.245L217.261 844.655L295.701 1070.94L521.983 992.497L739.245 1097.91L844.655 880.644L1071.97 801.847L993.171 574.534L1097.91 358.66L882.033 253.925ZM223.447 661.788L286.086 532.681L239.272 397.633L374.321 350.819L436.454 222.753L564.521 284.887L700.084 237.895L747.076 373.457L875.143 435.591L813.009 563.658L859.823 698.706L724.775 745.52L662.136 874.628L533.028 811.988L398.496 858.623L351.861 724.091L223.447 661.788Z" fill="#88D0C8"/>
<path d="M533.668 812.025L662.518 874.754L725.157 745.646L860.205 698.832L813.392 563.784L875.526 435.718L747.459 373.584L700.378 237.763L564.814 284.756L436.49 222.711L374.356 350.777L239.308 397.591L286.122 532.638L223.482 661.746L352.59 724.386L399.136 858.66L533.668 812.025Z" fill="white"/>
</g>
</svg>
