<svg preserveAspectRatio="none" width="100%" height="100%" overflow="visible" style="display: block;" viewBox="0 0 277.11 88" fill="none" xmlns="http://www.w3.org/2000/svg">
<g id="Vector">
<path d="M27.4829 61.5136H40.7261C40.7261 68.776 46.5645 74.7568 53.9694 74.7568V88C39.3021 87.8576 27.4829 76.0384 27.4829 61.5136Z" fill="var(--fill-0, black)"/>
<path d="M38.8752 33.3194H46.4224C46.4224 37.449 49.84 40.8666 53.9696 40.8666V48.4138C45.568 48.2714 38.8752 41.5786 38.8752 33.3194Z" fill="var(--fill-0, black)"/>
<path d="M38.8752 33.3228H46.4224C46.4224 29.1932 49.84 25.7756 53.9696 25.7756V18.2284C45.568 18.3708 38.8752 25.0636 38.8752 33.3228Z" fill="var(--fill-0, black)"/>
<path d="M18.3696 43.2852V52.3988C13.3856 52.3988 9.25601 56.5284 9.25601 61.5124H0C0 51.402 8.25921 43.2852 18.3696 43.2852Z" fill="var(--fill-0, black)"/>
<path d="M18.3707 43.2852V52.3988C23.3547 52.3988 27.4843 56.5284 27.4843 61.5124H36.5979C36.5979 51.402 28.4811 43.2852 18.3707 43.2852Z" fill="var(--fill-0, black)"/>
<path d="M64.2223 18.7935H69.4911C69.4911 21.6415 71.7695 24.0623 74.7599 24.0623V29.3312C68.9215 29.3312 64.2223 24.6319 64.2223 18.7935Z" fill="var(--fill-0, black)"/>
<path d="M51.122 18.7935H56.3908C56.3908 21.6415 58.6692 24.0623 61.6596 24.0623V29.3312C55.8212 29.3312 51.122 24.6319 51.122 18.7935Z" fill="var(--fill-0, black)"/>
<path d="M80.172 61.5136H66.9287C66.9287 68.776 61.0903 74.7568 53.6855 74.7568V88C68.3527 87.8576 80.172 76.0384 80.172 61.5136Z" fill="var(--fill-0, black)"/>
<path d="M80.172 61.5168H66.9287C66.9287 54.2544 61.0903 48.2736 53.6855 48.2736V35.0303C68.3527 35.1727 80.172 46.992 80.172 61.5168Z" fill="var(--fill-0, black)"/>
<path d="M87.8614 77.7475H79.0326V68.9187C83.8742 69.0611 87.8614 72.9059 87.8614 77.7475Z" fill="var(--fill-0, black)"/>
<path d="M38.8757 24.4916V30.33H33.0373C32.8949 27.0548 35.6005 24.4916 38.8757 24.4916Z" fill="var(--fill-0, black)"/>
<path d="M38.8757 30.33V36.1684H33.0373C32.8949 33.0356 35.6005 30.33 38.8757 30.33Z" fill="var(--fill-0, black)"/>
<path d="M38.8757 36.3087V42.1471H33.0373C32.8949 39.0143 35.6005 36.3087 38.8757 36.3087Z" fill="var(--fill-0, black)"/>
<path d="M82.1653 87.8575H73.3365V79.0287C78.3205 79.0287 82.1653 83.0159 82.1653 87.8575Z" fill="var(--fill-0, black)"/>
<path d="M51.6909 18.7944V12.1016H44.9981C45.1405 15.804 48.1309 18.7944 51.6909 18.7944Z" fill="var(--fill-0, black)"/>
<path d="M69.4911 18.7935C69.4911 15.0911 66.5006 12.1016 62.7982 12.1016H50.6942V18.7944L69.4911 18.7935Z" fill="var(--fill-0, black)"/>
<path d="M48.2739 1.1392C48.8435 6.69281 52.8307 11.9616 60.2355 12.104C60.2355 12.104 60.2355 12.104 60.3779 12.104V7.97441C55.1091 7.97441 52.4035 3.98721 52.4035 0H48.4163V1.1392H48.2739Z" fill="var(--fill-0, black)"/>
<path d="M0 63.3648C0.712001 71.9088 6.83521 79.8832 18.2272 79.8832H18.3696V73.6176C10.2528 73.6176 6.26561 67.6368 6.12321 61.5136H0V63.3648Z" fill="var(--fill-0, black)"/>
<path d="M69.7767 31.8955C69.3495 27.4811 66.2167 23.4939 60.5207 23.4939V26.6267C64.6503 26.6267 66.7863 29.7595 66.7863 32.7499H69.7767V31.8955Z" fill="var(--fill-0, black)"/>
<path d="M67.0713 26.0546L68.2105 21.7826L64.6505 16.229H59.0969L51.5497 21.6402L60.9481 25.0578L67.0713 26.0546Z" fill="var(--fill-0, black)"/>
<path d="M138.724 13.3819V9.53708H99.7063V13.3819H138.724Z" fill="var(--fill-0, black)"/>
<path d="M139.693 11.5344L148.807 0H143.823L134.852 11.5344L143.823 22.9264H148.807L139.693 11.5344Z" fill="var(--fill-0, black)"/>
<path d="M101.958 0H98.1135V22.784H101.958V0Z" fill="var(--fill-0, black)"/>
<path d="M175.579 0V22.784H171.735V4.84161L157.495 22.784H152.653V0H156.498V17.9424L170.738 0H175.579Z" fill="var(--fill-0, black)"/>
<path d="M275.117 0V22.784H271.273V4.84161L257.033 22.784H252.191V0H256.036V17.9424L270.276 0H275.117ZM264.295 2.136C264.295 3.27521 263.298 4.27201 262.159 4.27201C261.02 4.27201 260.023 3.27521 260.023 2.136C260.023 0.996801 261.02 0 262.159 0C263.298 0 264.295 0.996801 264.295 2.136Z" fill="var(--fill-0, black)"/>
<path d="M145.818 32.4658V55.2499H141.974V37.3074L127.734 55.2499H122.892V32.4658H126.737V50.4082L140.977 32.4658H145.818Z" fill="var(--fill-0, black)"/>
<path d="M156.782 55.248C154.931 55.248 153.365 54.536 152.083 53.2544C150.801 51.9728 150.089 50.4064 150.089 48.5552H153.934C153.934 49.4096 154.219 49.9792 154.789 50.5488C155.358 51.1184 156.07 51.4032 156.782 51.4032H158.633C159.488 51.4032 160.057 51.1184 160.627 50.5488C161.197 49.9792 161.481 49.2672 161.481 48.5552C161.481 47.8432 161.197 47.1312 160.627 46.5616C160.057 45.992 159.345 45.7072 158.633 45.7072H153.934V41.8624H156.782C157.637 41.8624 158.206 41.5776 158.776 41.008C159.345 40.4384 159.63 39.7264 159.63 39.0144C159.63 38.3024 159.345 37.5904 158.776 37.0208C158.206 36.4512 157.494 36.1664 156.782 36.1664C155.928 36.1664 155.358 36.4512 154.789 37.0208C154.219 37.5904 153.934 38.3024 153.934 39.0144H150.089C150.089 37.1632 150.801 35.5968 152.083 34.3152C153.365 33.0336 154.931 32.3216 156.782 32.3216C158.633 32.3216 160.2 33.0336 161.481 34.3152C162.763 35.5968 163.475 37.1632 163.475 39.0144C163.475 40.4384 163.048 41.72 162.193 42.8592C162.621 43.144 163.048 43.4288 163.333 43.856C164.614 45.1376 165.326 46.704 165.326 48.5552C165.326 50.4064 164.614 51.9728 163.333 53.2544C162.051 54.536 160.485 55.248 158.633 55.248H156.782Z" fill="var(--fill-0, black)"/>
<path d="M173.017 45.8493V55.3902H169.172V32.6061H173.017V42.1469H217.873V32.6061H221.718V55.3902H217.873V45.8493H173.017Z" fill="var(--fill-0, black)"/>
<path d="M254.042 32.4658V36.3106H230.689V42.0066H250.198V45.8514H230.689V51.5474H254.042V55.3923H226.844V32.6082H254.042V32.4658Z" fill="var(--fill-0, black)"/>
<path d="M261.02 49.5543L258.172 52.4023C255.894 50.1239 254.612 47.2759 254.612 44.0006C254.612 40.7254 255.752 37.8774 258.172 35.599C260.593 33.3206 263.299 32.039 266.574 32.039C269.849 32.039 272.697 33.1782 274.976 35.599L272.128 38.447C270.561 36.8806 268.71 36.1686 266.432 36.1686C264.296 36.1686 262.302 36.8806 260.736 38.447C259.169 40.0134 258.457 41.8646 258.457 44.1431C258.742 46.1367 259.454 47.9879 261.02 49.5543Z" fill="var(--fill-0, black)"/>
<path d="M272.269 49.5565L275.117 52.4045C272.838 54.6829 269.99 55.9645 266.715 55.9645C263.44 55.9645 260.592 54.8253 258.314 52.4045C256.035 50.1261 254.754 47.2781 254.754 44.0029C254.754 40.7277 255.893 37.8797 258.314 35.6013L261.162 38.4493C259.595 40.0157 258.883 41.8669 258.883 44.1453C258.883 46.2813 259.595 48.2749 261.162 49.8413C262.728 51.4077 264.579 52.1197 266.858 52.1197C268.709 51.9773 270.702 51.1229 272.269 49.5565Z" fill="var(--fill-0, black)"/>
<path d="M101.959 79.4583V87.8599H98.1139V65.0758H101.959V73.4774L108.509 65.0758H113.351L104.38 76.4678L113.351 87.8599H108.509L101.959 79.4583Z" fill="var(--fill-0, black)"/>
<path d="M126.594 73.3371L133.145 64.9355H137.986L120.044 87.7196H115.202L124.174 76.3275L115.202 64.9355H120.044L126.594 73.3371Z" fill="var(--fill-0, black)"/>
<path d="M151.94 87.7196H148.096V68.7803H143.396V81.1692C143.396 83.0204 142.684 84.5868 141.403 85.8684C140.121 87.15 138.555 87.862 136.704 87.862V84.0172C137.558 84.0172 138.128 83.7324 138.697 83.1628C139.409 82.5932 139.552 81.8812 139.552 81.1692V64.9355H151.94V87.7196Z" fill="var(--fill-0, black)"/>
<path d="M170.169 81.1671C170.169 83.0183 169.457 84.5847 168.175 85.8663C166.894 87.1479 165.327 87.8599 163.476 87.8599H154.932V65.0758H158.777V72.623H163.476C165.327 72.623 166.894 73.335 168.175 74.6166C169.457 75.8982 170.169 77.4646 170.169 79.3158V81.1671ZM163.618 84.0151C164.473 84.0151 165.042 83.7303 165.612 83.1607C166.182 82.5911 166.466 81.8791 166.466 81.1671V79.3158C166.466 78.4614 166.182 77.8919 165.612 77.3223C165.042 76.7526 164.33 76.4678 163.618 76.4678H158.919V84.0151H163.618Z" fill="var(--fill-0, black)"/>
<path d="M189.821 64.9355V68.7803H180.28V87.862H176.577V68.7803H167.037V64.9355H189.821Z" fill="var(--fill-0, black)"/>
<path d="M203.063 73.3371L209.614 64.9355H214.455L196.513 87.7196H191.671L200.643 76.3275L191.671 64.9355H196.513L203.063 73.3371Z" fill="var(--fill-0, black)"/>
<path d="M254.326 76.3275C254.326 73.1947 255.465 70.4891 257.601 68.2107C259.88 65.9323 262.585 64.9355 265.718 64.9355C268.851 64.9355 271.556 66.0747 273.835 68.2107C276.113 70.4891 277.11 73.1947 277.11 76.3275V87.7196H273.265V84.0172H258.028V87.862H254.184V76.3275H254.326ZM273.265 80.1723V76.3275C273.265 74.1915 272.553 72.4827 270.987 70.9163C269.563 69.4923 267.712 68.6379 265.576 68.6379C263.44 68.6379 261.731 69.3499 260.164 70.9163C258.74 72.3403 257.886 74.1915 257.886 76.3275V80.1723H273.265Z" fill="var(--fill-0, black)"/>
<path d="M219.025 15.2566V19.1014H240.243V15.2566H219.025Z" fill="var(--fill-0, black)"/>
<path d="M229.25 0.0487568V3.89356H236.797V0.0487568H229.25Z" fill="var(--fill-0, black)"/>
<path d="M244.785 3.41941C242.507 1.14101 239.801 0.144206 236.669 0.144206V3.98901C238.805 3.98901 240.513 4.70101 242.08 6.26742C243.504 7.69142 244.358 9.54262 244.358 11.6786V15.5234H236.811V19.3682H244.358V23.213H248.203V11.3938C248.203 8.26102 247.064 5.55541 244.785 3.41941Z" fill="var(--fill-0, black)"/>
<path d="M221.859 15.2368V11.392C221.859 9.25602 222.571 7.54721 224.137 5.98081C225.561 4.55681 227.413 3.70241 229.549 3.70241V0C226.416 0 223.71 1.1392 221.432 3.27521C219.153 5.55361 218.157 8.25921 218.157 11.392V22.784H222.001V18.9392H229.549V15.0944H221.859V15.2368Z" fill="var(--fill-0, black)"/>
<path d="M113.761 43.9155V40.0707H99.8055V43.9155H113.761Z" fill="var(--fill-0, black)"/>
<path d="M113.749 55.2961V51.4513H99.7939V55.2961H113.749Z" fill="var(--fill-0, black)"/>
<path d="M101.958 51.5484V43.8588H106.657V40.1564H101.958V36.3116H116.768V32.4668H98.1135V55.2508H106.657V51.5484H101.958Z" fill="var(--fill-0, black)"/>
<path d="M117.623 42.0098C116.341 40.7282 114.775 40.0162 112.924 40.0162V43.861C113.778 43.861 114.348 44.1458 114.917 44.7154C115.487 45.285 115.772 45.997 115.772 46.709V48.5602C115.772 49.4146 115.487 49.9842 114.917 50.5538C114.348 51.1234 113.636 51.4082 112.924 51.4082V55.253C114.775 55.253 116.341 54.541 117.623 53.2594C118.905 51.9778 119.617 50.4114 119.617 48.5602V46.709C119.617 44.8578 118.905 43.2914 117.623 42.0098Z" fill="var(--fill-0, black)"/>
<path d="M183.554 0.143881H179.709V22.9279H183.554V0.143881Z" fill="var(--fill-0, black)"/>
<path d="M214.028 0.143881H210.183V22.9279H214.028V0.143881Z" fill="var(--fill-0, black)"/>
<path d="M208.332 0.143881V3.98869H198.791V23.0703H194.946V3.98869H185.405V0.143881H208.332Z" fill="var(--fill-0, black)"/>
<path d="M179.729 0.157539V4.00236H213.905V0.157539H179.729Z" fill="var(--fill-0, black)"/>
<path d="M219.725 76.4719V68.7823H245.926V64.9375H215.88V87.8639H219.725V80.1743H245.926V76.4719H219.725Z" fill="var(--fill-0, black)"/>
<path d="M250.625 66.9311C249.343 65.6495 247.778 64.9375 245.926 64.9375H245.783V68.7823H245.926C246.781 68.7823 247.35 69.0671 247.919 69.6367C248.489 70.2063 248.774 70.9183 248.774 71.6303V73.4815C248.774 74.3359 248.489 74.9055 247.919 75.4751C247.35 76.0447 246.638 76.3295 245.926 76.3295H245.783V80.1743H245.926C247.778 80.1743 249.343 79.4623 250.625 78.1807C251.906 76.8991 252.618 75.3327 252.618 73.4815V71.6303C252.476 69.7791 251.906 68.2127 250.625 66.9311Z" fill="var(--fill-0, black)"/>
</g>
</svg>
