<svg preserveAspectRatio="none" width="100%" height="100%" overflow="visible" style="display: block;" viewBox="0 0 243.431 105.82" fill="none" xmlns="http://www.w3.org/2000/svg">
<g id="Clip path group">
<mask id="mask0_0_7" style="mask-type:luminance" maskUnits="userSpaceOnUse" x="0" y="0" width="244" height="106">
<g id="SVGID_2_">
<path id="Vector" d="M243.431 0H0V105.82H243.431V0Z" fill="var(--fill-0, white)"/>
</g>
</mask>
<g mask="url(#mask0_0_7)">
<g id="Vector_2">
<path d="M182.146 14.2336H188.651L196.554 28.4624L204.277 14.2336H210.818L212.216 44.537H205.352L204.492 24.7171L198.22 36.5266H194.672L188.041 24.8425L187.271 44.5191H180.73L182.146 14.2336ZM133.653 44.555V14.2336H140.516V38.3187H151.072V14.2336H157.935V38.3187H168.49V14.2336H175.354V44.555H133.653ZM116.879 39.2864C117.363 39.2864 117.901 39.2505 118.51 39.1788C119.119 39.1072 119.675 38.9279 120.195 38.6591C120.714 38.3903 121.144 37.9961 121.485 37.4764C121.825 36.9567 122.005 36.2578 122.005 35.3439C122.005 34.5195 121.843 33.8565 121.503 33.3368C121.162 32.8171 120.75 32.4228 120.23 32.1361C119.711 31.8494 119.155 31.6523 118.546 31.5447C117.937 31.4372 117.381 31.3835 116.861 31.3835H112.399V39.2864H116.879ZM116.467 26.3837C116.987 26.3837 117.489 26.3299 117.99 26.2045C118.492 26.079 118.922 25.8998 119.317 25.631C119.693 25.3801 119.998 25.0217 120.248 24.5916C120.481 24.1615 120.607 23.606 120.607 22.9788C120.607 22.3157 120.481 21.7602 120.248 21.3122C120.015 20.8642 119.693 20.5237 119.299 20.2728C118.904 20.0219 118.456 19.8427 117.955 19.7352C117.453 19.6277 116.969 19.5739 116.467 19.5739H112.435V26.3837H116.467ZM105.751 14.2336H117.112C118.994 14.2336 120.571 14.4487 121.879 14.8967C123.187 15.3447 124.245 15.9181 125.069 16.6529C125.893 17.3697 126.485 18.2119 126.843 19.1796C127.202 20.1294 127.381 21.1151 127.381 22.1544C127.381 23.1221 127.202 23.9823 126.861 24.7171C126.521 25.4518 126.108 26.0969 125.642 26.6166C125.177 27.1542 124.675 27.5664 124.155 27.8711C123.635 28.1757 123.205 28.3728 122.829 28.4624C123.402 28.6058 124.012 28.8388 124.657 29.1434C125.893 29.681 126.933 30.5412 127.739 31.6881C128.546 32.835 128.958 34.2328 128.958 35.8815C128.958 37.4585 128.671 38.7846 128.115 39.8777C127.56 40.9709 126.771 41.8669 125.75 42.5658C124.728 43.2647 123.492 43.7665 122.023 44.089C120.553 44.4116 118.904 44.5729 117.094 44.5729H105.733L105.751 14.2336Z" fill="black"/>
<path d="M236.264 60.5002H243.432L231.766 84.2268C230.619 86.5923 229.293 88.4022 227.77 89.6746C226.247 90.9469 224.419 91.5742 222.233 91.5742C220.871 91.5742 219.706 91.3591 218.72 90.9111C217.735 90.481 216.838 89.9613 216.014 89.3879L218.864 84.621C219.347 84.9615 219.885 85.2483 220.458 85.4812C221.032 85.7142 221.623 85.8396 222.233 85.8396C223.774 85.8396 225.082 84.8182 226.139 82.7573L214.939 60.4822H222.376L229.311 75.858L236.264 60.5002ZM193.04 60.5002H213.362V66.7185H199.886V90.7677H193.04V60.5002ZM177.467 86.0547C178.919 86.0547 180.048 85.5887 180.872 84.6748C181.679 83.7609 182.091 82.5602 182.091 81.1086C182.091 79.6571 181.679 78.4743 180.872 77.5604C180.048 76.6464 178.919 76.1984 177.467 76.1984C176.016 76.1984 174.887 76.6644 174.08 77.6142C173.274 78.546 172.88 79.7108 172.88 81.1086C172.88 82.5602 173.274 83.7429 174.08 84.6748C174.887 85.5887 176.016 86.0547 177.467 86.0547ZM186.625 65.715L180.46 66.4856C177.915 66.8261 175.944 67.5966 174.51 68.7973C173.095 70.0159 172.252 71.8438 172.02 74.281C172.844 73.2237 173.883 72.3993 175.156 71.8259C176.428 71.2524 177.808 70.9657 179.277 70.9657C180.693 70.9657 181.983 71.2345 183.13 71.7542C184.277 72.2918 185.263 73.0086 186.087 73.9046C186.911 74.8186 187.539 75.8759 187.969 77.0945C188.399 78.3131 188.632 79.6212 188.632 81.019C188.632 82.5602 188.363 83.9759 187.807 85.2662C187.27 86.5564 186.517 87.6675 185.532 88.5815C184.564 89.4954 183.399 90.2122 182.055 90.714C180.711 91.2157 179.241 91.4666 177.682 91.4666C176.105 91.4666 174.618 91.1978 173.22 90.6602C171.804 90.1226 170.586 89.2983 169.529 88.1693C168.471 87.0403 167.629 85.5708 167.02 83.7609C166.393 81.9688 166.088 79.8004 166.088 77.2916C166.088 72.3814 167.271 68.6181 169.636 65.9659C172.002 63.3137 175.389 61.7008 179.797 61.1274L185.836 60.3568L186.625 65.715ZM134.638 60.5002H161.142V90.7677H154.296V66.7185H141.501V90.7677H134.655V60.5002H134.638ZM131.053 85.1945C130.408 86.0726 129.638 86.8969 128.742 87.6675C127.828 88.4381 126.824 89.1191 125.731 89.6925C124.62 90.266 123.437 90.714 122.147 91.0545C120.857 91.3949 119.513 91.5562 118.133 91.5562C115.839 91.5562 113.724 91.162 111.825 90.3735C109.925 89.585 108.277 88.4918 106.897 87.0761C105.517 85.6604 104.46 84.0117 103.707 82.0943C102.954 80.1768 102.578 78.0622 102.578 75.7684C102.578 73.5283 102.954 71.4316 103.707 69.4783C104.46 67.525 105.535 65.8225 106.897 64.3889C108.277 62.9553 109.925 61.8083 111.843 60.984C113.76 60.1417 115.893 59.7296 118.222 59.7296C121.036 59.7296 123.491 60.2493 125.606 61.2707C127.702 62.2922 129.459 63.7796 130.856 65.715L126.179 70.213C125.265 68.9407 124.208 67.9192 122.953 67.1486C121.717 66.3781 120.23 65.9838 118.509 65.9838C117.147 65.9838 115.911 66.2347 114.835 66.7365C113.742 67.2382 112.828 67.9192 112.076 68.7973C111.323 69.6754 110.732 70.6969 110.32 71.8617C109.907 73.0265 109.71 74.263 109.71 75.5533C109.71 76.8794 109.907 78.1159 110.32 79.2807C110.732 80.4277 111.305 81.4312 112.076 82.2735C112.828 83.1157 113.742 83.7967 114.8 84.2626C115.857 84.7465 117.04 84.9794 118.384 84.9794C119.477 84.9794 120.427 84.8719 121.215 84.639C122.022 84.406 122.72 84.1013 123.348 83.725C123.957 83.3487 124.513 82.9007 124.996 82.3989C125.48 81.8971 125.946 81.3954 126.412 80.8757L131.053 85.1945Z" fill="black"/>
<path d="M25.3567 31.937C25.3913 31.8677 25.3221 32.0236 25.3567 31.937Z" fill="var(--fill-0, white)"/>
<path d="M26.5061 62.2791C26.309 62.4941 26.1477 63.0497 26.1477 63.1751C26.1477 63.426 26.2731 63.6948 26.7391 63.8382C26.6136 65.4331 26.4344 67.6014 26.4344 68.7125C26.4344 70.1461 26.7928 70.863 27.5096 70.863C27.6172 70.863 27.7247 70.8271 27.8501 70.7554C28.2265 70.5045 28.5311 69.8415 28.5311 68.6587C28.5311 67.6014 28.334 65.451 28.1727 63.8561C28.6745 63.7306 28.7999 63.426 28.7999 63.1751C28.7999 62.8346 28.3877 62.3149 28.3877 62.3149C28.4773 62.3328 28.5669 62.3328 28.6565 62.3508C28.9791 62.3866 29.2479 62.3508 29.463 62.297C30.1439 62.1178 30.4665 61.6339 30.574 61.5264C31.1654 61.0246 31.2908 60.0211 30.9145 58.4262L30.8608 58.1753L30.8428 58.0678L30.5382 58.3007C30.1619 58.5695 29.8214 58.8563 29.4809 59.143C29.4092 59.1968 29.3375 59.2505 29.2658 59.3222C29.2658 59.0892 29.23 58.7308 29.015 58.4979C28.8895 58.3724 28.7103 58.3007 28.5311 58.3007C28.5132 58.3007 28.5132 58.3007 28.4953 58.3007C28.4594 58.3007 28.4236 58.3007 28.3877 58.3007C28.3161 58.3007 28.2444 58.3187 28.1727 58.3545C28.2085 58.2828 28.2265 58.2111 28.2265 58.1215C28.2265 57.7452 27.9218 57.4406 27.5276 57.4226C27.5096 57.4226 27.4917 57.4226 27.4738 57.4226C27.0616 57.4226 26.7211 57.7452 26.7211 58.1395C26.7211 58.1932 26.7391 58.247 26.757 58.3007C26.757 58.3187 26.757 58.3545 26.7749 58.3724C26.6853 58.3366 26.5957 58.3187 26.5061 58.3187C26.4882 58.3187 26.4703 58.3187 26.4523 58.3187C26.2373 58.3187 26.0581 58.3903 25.9147 58.5337C25.7534 58.695 25.6997 58.9459 25.6638 59.143C25.6638 59.2147 25.6638 59.2864 25.6638 59.358C25.2696 59.0176 24.8574 58.6771 24.3915 58.3366L24.266 58.247L24.0689 58.1036L23.9793 58.462C23.6209 60.039 23.7463 61.0426 24.3198 61.5623C25.1262 62.1895 26.2194 62.3328 26.5061 62.2791Z" fill="var(--fill-0, white)"/>
<path d="M28.3334 84.5961C28.4946 84.3453 28.638 83.9689 28.638 83.4492C28.638 82.1769 28.1542 79.005 28.0825 78.6286C28.0108 78.324 27.742 78.109 27.4015 78.1269C27.3298 78.1269 27.2581 78.1448 27.2044 78.1627C26.9893 78.2344 26.828 78.4136 26.7922 78.6645L26.7564 78.9154C26.6668 79.7576 26.3621 82.3382 26.3621 83.4851C26.3621 84.0048 26.4696 84.3632 26.613 84.5961C26.5055 84.6678 26.4159 84.7395 26.3084 84.8291C25.6811 85.4922 25.6811 86.5674 26.3084 87.2125C26.613 87.5351 27.0431 87.7322 27.4911 87.7322C27.9033 87.7322 28.2796 87.5709 28.5842 87.3021C28.6201 87.2842 28.638 87.2663 28.6739 87.2304C29.3011 86.5674 29.3011 85.4922 28.6739 84.847C28.5663 84.7395 28.4588 84.6678 28.3334 84.5961Z" fill="var(--fill-0, white)"/>
<path d="M38.6382 25.4312C41.0395 23.3883 39.57 19.6788 39.2295 19.2487C37.9572 21.65 35.8426 23.5854 31.237 23.0478C24.7319 22.2952 21.3091 26.829 25.3591 31.9364C27.4379 25.9151 35.4125 28.1731 38.6382 25.4312Z" fill="var(--fill-0, white)"/>
<path d="M32.8672 12.7481C31.0214 15.4899 31.8995 19.1815 34.713 20.8123L35.7345 21.4037C37.0247 20.5793 37.867 19.3966 38.6913 18.1959C41.2898 18.0705 44.2108 16.5114 46.1462 14.5939C46.1821 14.5581 46.2179 14.5401 46.2537 14.5043C43.4223 14.128 41.4332 11.4041 39.211 10.508C36.7201 9.48658 34.5517 10.2392 32.8672 12.7481ZM38.5838 12.9094C39.0677 12.2642 40.0712 12.2105 40.0712 12.2105C40.0712 12.2105 40.0891 12.2822 40.107 12.3897C40.107 12.4076 40.107 12.4255 40.107 12.4614C40.125 12.6047 40.125 12.8198 40.107 13.0348C40.0712 13.3036 39.9816 13.5904 39.8024 13.8233C39.444 14.3072 38.7809 14.4685 38.4763 14.5043C38.3688 14.5222 38.315 14.5222 38.315 14.5222C38.315 14.5222 38.1 13.5545 38.5838 12.9094Z" fill="var(--fill-0, white)"/>
<path d="M31.9892 20.036L31.9713 20.0181C29.104 16.004 30.681 10.9504 34.9461 8.78203L33.7633 6.7391L33.6379 6.52405C31.8996 7.29463 29.3908 9.5526 28.9069 12.4916C28.3693 15.6455 29.8208 18.7995 31.9892 20.036Z" fill="var(--fill-0, white)"/>
<path d="M45.8409 18.2986C45.6258 18.5495 45.357 18.8362 44.9449 19.0154C44.4431 19.2663 43.9772 19.2484 43.4933 19.1409C43.4396 19.123 43.3679 19.123 43.3141 19.105C43.332 18.7466 43.4396 18.4241 43.565 18.1911C43.6188 18.0836 43.6725 17.994 43.7263 17.9402C42.5256 18.4599 41.8088 18.7287 40.6619 19.0871C42.1493 22.7787 40.7515 26.3628 37.938 28.7283C39.7659 30.0007 41.0203 32.9575 42.2747 32.9217C43.9055 27.7785 43.6188 24.3199 43.6188 24.3199C45.2854 24.1586 47.2566 24.7679 46.7728 22.725C46.6652 22.259 46.934 22.044 46.934 21.6677C46.934 21.4168 46.719 21.1121 46.6652 20.8254C46.5756 20.4491 47.8301 20.4132 47.5971 19.9831C47.3462 19.5172 46.9161 18.9079 46.5398 18.3703C46.5398 18.3703 46.5219 18.3524 46.5039 18.3524C46.3427 18.1015 46.0201 18.0836 45.8409 18.2986Z" fill="var(--fill-0, white)"/>
<path d="M50.3404 30.965C49.9283 29.0834 47.9212 27.3092 44.9106 27.5781C44.8926 30.3916 43.6382 34.2624 42.5988 35.7677C42.5271 35.7498 42.4555 35.7318 42.3838 35.7139C39.9287 34.9254 38.6742 31.0905 35.4486 29.2805C34.678 28.8504 30.3233 27.7214 27.5636 31.1801C33.4415 31.2876 32.1512 43.0792 37.8678 43.5989C38.4413 43.6527 39.1043 43.5989 39.8212 43.4376C39.8212 43.4555 39.8032 43.4735 39.7853 43.4914C39.3911 44.477 38.1725 45.1938 36.488 45.0684C36.1116 45.0325 35.7174 44.9788 35.3052 44.8533C35.2335 44.8354 35.1618 44.8175 35.0902 44.7996C35.8249 49.1542 40.9501 48.993 44.9643 48.9033L45.1077 52.6666C45.1077 52.6666 45.717 52.7383 46.6847 52.8996C46.6847 52.8996 46.4338 49.7277 46.613 42.4162C51.5949 39.3697 47.8853 36.3053 48.2438 34.0652C48.5126 32.7571 49.1935 31.646 50.3404 30.965Z" fill="var(--fill-0, white)"/>
<path d="M68.3488 33.8238L68.2234 26.9065C68.8685 25.9746 69.4957 24.8636 69.4957 24.8636C69.0119 20.7598 67.5962 15.7062 67.5962 15.7062C67.5962 15.7062 66.3776 20.5627 65.7862 24.8636C65.7862 24.8636 66.2163 25.6879 67.0765 26.9065V27.0678L66.969 35.132C66.5568 35.4545 66.1446 35.8129 65.8221 36.0997C64.5139 37.2107 64.926 39.8809 64.3347 40.2751C61.8258 41.888 59.5858 42.9094 57.2382 44.1818C55.697 41.4937 53.1882 37.5512 51.1273 33.3937C48.4034 35.0065 53.2061 38.3935 49.622 42.2105C51.3603 45.3824 53.8333 49.074 56.2167 49.6117V49.5758C56.3063 49.5937 56.378 49.6117 56.4497 49.6117C58.6897 49.6833 64.9619 43.1782 68.4026 40.5798C69.8004 39.6479 69.9975 36.9598 70.0692 35.5441C70.3201 35.2395 70.4634 34.8452 70.4814 34.3255C70.4814 34.3076 70.4814 34.2897 70.4814 34.2718C70.5351 33.2503 68.3488 33.8238 68.3488 33.8238Z" fill="var(--fill-0, white)"/>
<path d="M68.5108 42.4992V42.4275L67.0234 43.7716L66.6471 87.2823C67.113 88.268 68.1345 88.6264 68.9588 88.6264V88.4472L68.5108 42.4992Z" fill="var(--fill-0, white)"/>
<path d="M43.0986 -0.000119925C19.3003 -0.000119925 -1.52588e-05 22.5079 -1.52588e-05 52.9009C-1.52588e-05 66.4309 3.83495 78.3838 10.1788 87.5053C11.1106 88.688 13.5837 92.2183 16.0925 94.4763C23.4937 101.644 32.866 105.82 43.1165 105.82C53.3312 105.82 62.7035 102.182 70.0867 95.4082L70.3735 95.1394L72.2014 93.3473L73.2049 92.2363C81.2332 83.1506 86.233 69.7461 86.233 52.9009C86.2151 19.7661 66.9148 -0.000119925 43.0986 -0.000119925ZM71.5741 90.4442L70.6244 91.5194L68.2947 90.7668C67.1657 90.2829 64.5493 88.9389 64.2985 86.9497C63.7071 82.3621 62.4347 74.2621 61.4849 67.9183C60.7502 63.0797 59.5137 59.9258 56.5747 57.5065C61.0728 58.8326 62.4347 63.0797 63.2411 67.4702C65.1945 64.4955 65.6783 62.4167 64.7823 59.7107C63.9042 57.0764 58.994 55.3919 57.5962 54.9976C54.8365 54.3883 52.3276 53.9224 48.6718 53.331L51.1449 56.5746C48.7256 55.4277 47.7937 55.141 45.1057 54.1016C45.1057 59.6928 45.1057 67.6315 45.1057 77.3086C46.4139 76.09 48.9407 72.6851 50.2488 69.7641C51.0732 67.9362 52.2918 64.7822 53.6537 65.1048L45.5716 87.1289C44.8906 88.4013 44.1201 89.584 43.2778 90.6234C42.3101 91.8241 43.4212 93.5265 44.7473 93.5265C48.7435 93.5265 50.6431 93.5265 54.8006 93.3473C56.2163 93.2936 56.4493 92.738 56.4135 91.7703C54.5677 91.4119 50.3922 90.0141 48.6718 89.0643C48.6718 89.0643 52.2739 83.8853 54.2451 81.5378C56.3776 79.011 52.5068 74.2083 54.6214 72.4163C57.0765 78.8139 58.4564 81.932 60.5889 87.7024C60.5889 90.2471 59.2807 93.4728 61.5208 93.4728C63.0261 93.4728 66.6102 93.2936 68.8323 93.2219L68.5635 93.4728C61.5745 99.9241 52.7039 103.401 43.0448 103.401C33.3678 103.401 24.4793 99.4224 17.4724 92.5768C17.6695 92.6484 17.8666 92.7201 18.0638 92.7739C18.0996 92.7739 18.1175 92.7918 18.1534 92.8097C18.5118 92.8993 18.8702 92.9531 19.2286 92.9531L23.4578 92.9889C25.0348 92.9889 26.6835 94.1537 27.8662 95.5515C28.9056 94.0283 30.4826 92.9889 31.737 92.9889C31.6474 92.971 31.5399 92.9531 31.4503 92.9531H35.7154C39.7833 92.9531 43.0807 89.6557 43.0807 85.5878V50.8401H35.8408C36.3964 51.324 37.2565 51.987 37.9734 52.8472H41.0736V85.5878C41.0736 88.5447 38.6723 90.946 35.7154 90.946H31.1815C30.1601 91.0894 29.049 91.609 28.1888 92.6484C28.0992 92.738 28.0275 92.8456 27.9558 92.9531C27.9379 92.9889 27.92 93.0068 27.9021 93.0248C27.7766 92.8814 27.6512 92.756 27.5257 92.6305C26.558 91.6807 25.3574 91.0894 24.1567 90.946H19.2644C16.3076 90.946 13.9062 88.5447 13.9062 85.5878V52.8472H24.551C22.4543 52.3992 19.9813 50.8401 19.9813 50.8401H11.8991V85.6057C11.8991 85.6057 11.8991 85.6057 11.8991 85.6236C11.8991 85.7312 11.8991 85.8387 11.9171 85.9462C5.91372 77.219 2.2938 65.8216 2.2938 52.9009C2.2938 23.8878 20.5547 2.40122 43.0807 2.40122C65.6066 2.40122 83.8855 21.2714 83.8855 52.9009C83.9034 68.9935 79.1724 81.7707 71.5741 90.4442Z" fill="var(--fill-0, white)"/>
<path d="M34.0665 51.3805L25.5364 46.8108L25.5902 46.775C26.6116 45.0546 29.2818 40.3953 30.3212 38.8363C31.8623 36.5245 29.1922 32.2415 26.7729 32.7433C24.8554 35.3239 21.3072 41.0405 20.4291 45.3951C20.1424 46.8108 20.3932 47.8681 20.9667 48.6746C20.9846 48.7104 21.0205 48.7283 21.0563 48.7642C21.1101 48.8358 21.1638 48.8896 21.2176 48.9613C21.7552 49.5885 22.472 50.0724 23.2784 50.4487C25.4289 51.4522 29.6402 52.6887 31.8982 53.2622C32.0594 55.6814 32.6329 57.0613 33.0988 58.2261C33.3497 58.8354 33.511 59.1222 34.2995 59.158C34.4966 59.1759 34.64 59.1759 34.7654 59.1759C35.0521 59.1759 35.2134 59.1401 35.4643 59.1222C35.4643 59.1222 35.4822 59.1401 35.5002 59.1401C35.5181 59.1401 35.536 59.158 35.536 59.1759C35.5002 59.6419 35.3568 59.6419 35.6435 59.9286C35.8765 60.1436 36.217 60.3049 36.4858 60.2691C36.6112 60.2511 36.7187 60.1795 36.7725 60.054C37.2564 58.8175 37.7044 56.7925 37.7761 56.0219C37.8298 55.2514 35.2314 51.9898 34.0665 51.3805Z" fill="var(--fill-0, white)"/>
<path d="M36.5755 64.7709C36.6471 63.6598 36.1454 62.1903 35.2493 61.7065C34.7297 61.4197 34.2279 61.3301 33.744 61.4377C33.6903 61.4377 33.6544 61.4556 33.6007 61.4556C32.8122 61.6885 32.1133 62.4412 31.4323 63.7315C31.4323 63.7494 31.4144 63.7673 31.4144 63.7673L29.8553 63.8569L29.6223 63.8748L32.0954 68.2653L27.6511 73.1218L27.4898 73.2831L19.9453 65.649C19.7123 65.3801 19.8557 64.9859 20.1424 64.7709C20.2679 64.6633 20.4471 64.5916 20.6084 64.5916C20.7696 64.5916 20.9309 64.6275 21.0743 64.7888C21.9166 65.6131 24.1028 67.656 24.1208 67.674L24.5867 68.1041L24.5509 67.7815L24.1028 63.1759L24.0849 63.0684L23.0276 63.8211L22.8663 63.9465C22.1854 63.2297 21.4148 62.8175 20.5904 62.71C20.1604 62.6562 19.7482 62.6742 19.3181 62.7458C19.103 62.7817 18.888 62.8355 18.673 62.8892C18.4579 62.9609 18.207 63.0684 17.9741 63.1401C17.5798 63.3014 17.2035 63.4627 16.8451 63.5523L16.7017 63.5881L16.6659 63.7315C16.5763 64.1616 16.4329 64.5737 16.2895 64.968C16.1999 65.2009 16.1103 65.4339 16.0387 65.649L16.0207 65.7206C15.8057 66.3837 15.286 68.1041 16.4508 69.4122L15.1068 70.6129L20.6621 71.4193L20.5367 71.276L20.2679 70.9713C19.2823 69.8782 18.44 68.9105 17.5619 67.8532C17.2393 67.4768 17.3827 67.0826 17.6515 66.8675C17.7769 66.7779 17.9024 66.7242 18.0637 66.7063C18.2787 66.6883 18.5117 66.76 18.7267 66.993L25.8232 74.7346L20.3933 80.3975L20.25 80.5587C20.0887 80.5229 19.9453 80.505 19.784 80.505C19.5152 80.505 19.2464 80.5587 18.9955 80.6663C18.7267 80.7738 18.4758 80.953 18.2608 81.168C17.4544 82.0282 17.4544 83.426 18.2608 84.2862C18.655 84.7163 19.1927 84.9492 19.784 84.9492C20.232 84.9492 20.6621 84.8059 21.0205 84.5192C21.1101 84.4475 21.1997 84.3758 21.2893 84.2862C21.7911 83.7665 21.9703 83.0318 21.8628 82.3687L27.2568 76.2041L27.3106 76.2758L33.3498 82.5479C33.0989 83.3185 33.2602 84.1966 33.8516 84.8059C34.2458 85.236 34.7834 85.4689 35.3748 85.4689C35.9482 85.4689 36.4859 85.236 36.898 84.8059C36.898 84.8059 36.9159 84.788 36.9159 84.77C37.7044 83.9099 37.7044 82.53 36.898 81.6698C36.5038 81.2397 35.9662 81.0068 35.3748 81.0068C35.1418 81.0068 34.9268 81.0426 34.7297 81.1322L28.798 74.7167L33.2781 69.699L33.3677 69.7348L37.9374 72.0107L37.8836 71.7957L37.3819 70.0215C38.8155 69.3226 39.7295 68.4266 39.9266 67.5127C40.0699 66.9034 39.8907 66.312 39.4427 65.7744C38.5467 64.7709 37.4177 64.6992 36.5755 64.7709ZM32.8659 67.441L32.6688 67.656C32.6867 66.3658 32.8659 64.3587 33.5827 63.6956C33.7082 63.5881 33.8336 63.5343 33.977 63.5164C34.0128 63.5164 34.0487 63.4985 34.1024 63.4985C34.1204 63.4985 34.1383 63.4985 34.1383 63.4985C34.3533 63.4985 34.5504 63.6777 34.6938 63.9644C34.9268 64.4304 34.9268 65.1651 34.4429 65.7565L32.8659 67.441ZM37.2385 66.5091C37.4536 66.5629 37.7224 66.7063 37.794 67.0467C37.9016 67.5127 37.5073 67.8711 36.9159 68.1399C36.2887 68.4445 35.4286 68.6417 34.7117 68.8209C34.4071 68.8926 34.1024 68.9642 33.8516 69.0359L35.6794 66.993C35.8766 66.7959 36.1274 66.6525 36.3963 66.5629C36.5755 66.4912 36.7726 66.4554 36.9518 66.4554C37.0414 66.4554 37.1489 66.4733 37.2385 66.5091Z" fill="var(--fill-0, white)"/>
</g>
</g>
</g>
</svg>
